<svg width="400" height="400" viewBox="0 0 400 400" xmlns="http://www.w3.org/2000/svg">
  <defs>
    <linearGradient id="grad2" x1="0%" y1="0%" x2="100%" y2="100%">
      <stop offset="0%" style="stop-color:#e0e0e0;stop-opacity:1" />
      <stop offset="100%" style="stop-color:#a0a0a0;stop-opacity:1" />
    </linearGradient>
  </defs>
  <rect width="400" height="400" fill="#f8f8f8"/>
  <!-- Adidas Ultraboost silhouette -->
  <ellipse cx="200" cy="280" rx="140" ry="40" fill="#333" opacity="0.1"/>
  <path d="M 90 210 Q 100 190 130 190 L 270 190 Q 295 190 305 210 L 315 245 Q 315 265 295 275 L 140 275 Q 110 275 100 255 Z" fill="url(#grad2)" stroke="#666" stroke-width="2"/>
  <ellipse cx="125" cy="275" rx="28" ry="28" fill="white" stroke="#333" stroke-width="2"/>
  <ellipse cx="285" cy="275" rx="28" ry="28" fill="white" stroke="#333" stroke-width="2"/>
  <rect x="140" y="200" width="120" height="50" fill="#999" opacity="0.3" rx="5"/>
  <path d="M 180 220 L 190 210 L 200 220 L 210 210 L 220 220" stroke="#333" stroke-width="1" fill="none"/>
  <text x="200" y="350" font-family="Arial, sans-serif" font-size="16" fill="#666" text-anchor="middle">Adidas Ultraboost 22</text>
</svg>
