<svg width="400" height="400" viewBox="0 0 400 400" xmlns="http://www.w3.org/2000/svg">
  <defs>
    <linearGradient id="grad4" x1="0%" y1="0%" x2="100%" y2="100%">
      <stop offset="0%" style="stop-color:#d2691e;stop-opacity:1" />
      <stop offset="100%" style="stop-color:#8B4513;stop-opacity:1" />
    </linearGradient>
  </defs>
  <rect width="400" height="400" fill="#f8f8f8"/>
  <!-- Nike Dunk Low silhouette -->
  <ellipse cx="200" cy="280" rx="140" ry="40" fill="#333" opacity="0.1"/>
  <path d="M 100 205 Q 110 185 140 185 L 260 185 Q 285 185 295 205 L 305 245 Q 305 265 285 275 L 150 275 Q 120 275 110 255 Z" fill="url(#grad4)" stroke="#654321" stroke-width="2"/>
  <path d="M 140 185 L 160 200 L 180 185 L 200 200 L 220 185 L 240 200 L 260 185" fill="white" opacity="0.9"/>
  <ellipse cx="135" cy="275" rx="27" ry="27" fill="white"/>
  <ellipse cx="275" cy="275" rx="27" ry="27" fill="white"/>
  <path d="M 170 210 Q 200 220 230 210" stroke="white" stroke-width="2" fill="none"/>
  <text x="200" y="350" font-family="Arial, sans-serif" font-size="16" fill="#666" text-anchor="middle">Nike Dunk Low Retro</text>
</svg>
